<?xml version="1.0" encoding="utf-8"?>
<!-- Generator: Adobe Illustrator 16.0.3, SVG Export Plug-In . SVG Version: 6.00 Build 0)  -->
<!DOCTYPE svg PUBLIC "-//W3C//DTD SVG 1.1//EN" "http://www.w3.org/Graphics/SVG/1.1/DTD/svg11.dtd">
<svg version="1.1" id="Capa_1" xmlns="http://www.w3.org/2000/svg" xmlns:xlink="http://www.w3.org/1999/xlink" x="0px" y="0px"
	 width="50px" height="50px" viewBox="0 0 50 50" enable-background="new 0 0 50 50" xml:space="preserve">
<g>
	<path fill="#FFFFFF" d="M44.386,15.404c-0.909-1.192-2.287-1.822-3.684-1.822c-0.975,0-1.95,0.304-2.788,0.94
		c-2.032,1.538-2.429,4.436-0.888,6.468c0.909,1.196,2.285,1.828,3.683,1.828c0.972,0,1.954-0.308,2.787-0.941
		C45.529,20.337,45.928,17.439,44.386,15.404"/>
	<path fill="#FFFFFF" d="M10.982,29.894c-0.693-0.91-1.736-1.389-2.799-1.389c-0.738,0-1.486,0.232-2.117,0.715
		c-1.548,1.169-1.849,3.376-0.675,4.916c0.688,0.91,1.737,1.389,2.795,1.389c0.741,0,1.487-0.234,2.122-0.715
		C11.851,33.64,12.155,31.437,10.982,29.894"/>
	<path fill="#FFFFFF" d="M19.098,5.504c-0.002,0.195-0.012,0.388-0.04,0.581c-0.089,0.664-0.321,1.282-0.664,1.833
		c8.234,2.602,14.495,6.965,16.668,8.566c0.264-0.856,0.705-1.635,1.313-2.29C32.099,10.805,23.718,6.623,19.098,5.504"/>
	<path fill="#FFFFFF" d="M17.132,3.429C16.475,2.557,15.47,2.1,14.458,2.1c-0.708,0-1.415,0.225-2.026,0.684
		c-1.474,1.121-1.767,3.229-0.642,4.701c0.659,0.872,1.661,1.329,2.673,1.329c0.708,0,1.421-0.222,2.028-0.686
		C17.966,7.009,18.254,4.905,17.132,3.429"/>
	<path fill="#FFFFFF" d="M22.446,40.342c-3.655-1.57-8.154-4.755-10.017-6.104c-0.32,0.618-0.772,1.164-1.344,1.596
		c-0.147,0.113-0.314,0.208-0.471,0.302c4.282,3.35,9.194,5.759,11.241,6.662C21.885,41.951,22.084,41.116,22.446,40.342"/>
	<path fill="#FFFFFF" d="M32.257,38.434c3.265-4.679,6.015-11.813,6.768-14.582c-0.302-0.091-0.597-0.199-0.879-0.332
		c-1.5,6.486-4.66,12.3-6.107,14.709C32.114,38.292,32.185,38.365,32.257,38.434"/>
	<path fill="#FFFFFF" d="M31.972,40.011c-0.972-1.274-2.438-1.949-3.923-1.949c-1.038,0-2.084,0.329-2.971,1.002
		c-2.163,1.645-2.585,4.728-0.94,6.891c0.963,1.274,2.431,1.946,3.916,1.946c1.038,0,2.084-0.326,2.974-0.997
		C33.189,45.254,33.614,42.171,31.972,40.011"/>
	<path fill="#FFFFFF" d="M8.183,27.222c0.078,0,0.153,0.01,0.232,0.011c0.677-9.554,2.743-15.632,3.611-17.827
		c-0.152-0.093-0.3-0.199-0.442-0.312c-3.493,8.147-4.433,15.622-4.668,18.312C7.324,27.292,7.749,27.222,8.183,27.222"/>
</g>
</svg>
