<svg version="1.1" id="Capa_1" xmlns="http://www.w3.org/2000/svg" xmlns:xlink="http://www.w3.org/1999/xlink" x="0px" y="0px"
	 width="80px" height="80px" viewBox="-15 -15 80 80" enable-background="new -15 -15 80 80" xml:space="preserve">
<g>
	<path fill="#1AC18E" d="M49.567,13.933c-0.379,0.125-0.768,0.278-1.041,0.563c-0.854,0.896-0.076,2.342-0.34,3.528
		c-0.204,0.911-1.038,1.69-0.923,2.615c0.079,0.631,0.597,1.149,0.689,1.778c0.171,1.178-1.148,2.477-0.399,3.422
		c0.198,0.251,0.513,0.407,0.68,0.676c0.243,0.387,0.118,0.882,0.207,1.324c0.239,1.196,1.822,1.582,3.098,1.57
		c0.854-0.011,1.712-0.09,2.556-0.231c1.055,0.619,1.441,2.003,1.165,3.16c-0.087,0.362-0.204,0.729-0.146,1.096
		c0.042,0.271,0.177,0.522,0.28,0.78c0.4,1.001,0.326,2.111,0.486,3.172c0.17,1.112,0.618,2.179,1.277,3.108
		c0.138-0.534,0.217-1.069,0.217-1.589V11.888C53.423,10.764,51.156,13.413,49.567,13.933z"/>
	<path fill="#1AC18E" d="M46.773,2.767c0.036,0.255,0.181,0.484,0.235,0.737c0.163,0.754-0.493,1.452-1.194,1.773
		c-0.376,0.172-0.858,0.408-0.805,0.816c0.021,0.148,0.114,0.277,0.215,0.39c0.802,0.91,2.148,1.298,3.313,0.955
		c1.422-0.418,2.554-1.805,4.035-1.729c0.362,0.019,0.698,0.127,1.021,0.279l1.107-0.528c-0.52-0.475-1.086-0.869-1.681-1.14
		l-5.891-2.695C46.927,1.996,46.717,2.362,46.773,2.767z"/>
	<path fill="#1AC18E" d="M24.935-6.258c0.901,0.659,2.29,0.35,3.12,1.097c0.505,0.458,0.343,1.079,0.592,1.714
		c0.249,0.635,0.938,1.925,1.618,1.879c0.714-0.047,2.424-0.548,2.77-1.174c0.29-0.532,0.399-1.193,0.527-1.834l-4.208-1.925
		C28.157-7.05,26.579-7.322,25-7.322c-0.297,0-0.592,0.012-0.886,0.032C24.342-6.903,24.577-6.521,24.935-6.258z"/>
	<path fill="#1AC18E" d="M44.647,45.84c0.177-1.359-0.096-2.824-0.976-3.875c-1.239-1.48-3.642-1.807-5.232-0.714
		c-2.287,1.573-4.831-2.814-7.35-3.985c-1.291-0.604-2.724-0.699-4.177-0.722V57.18c0.894-0.132,1.733-0.359,2.438-0.68l13.44-6.143
		c0.148-0.227,0.287-0.461,0.419-0.691C43.887,48.472,44.47,47.199,44.647,45.84z"/>
	<path fill="#1AC18E" d="M21.98,14.822c-0.008-0.656,0.113-1.383,0.625-1.795c0.788-0.636,2.257-0.326,2.304-1.763
		c0.011-0.297-0.053-0.592-0.16-0.869c-0.634-1.662,0.94-2.949,2.449-3.337c1.316-0.337,2.738-0.285,3.968-0.862
		c1.229-0.577,2.155-2.191,1.361-3.294c-2.111-0.085-4.198-0.615-6.097-1.545c-1.302-0.639-2.535-1.472-3.951-1.798
		c-1.414-0.326-7.299-0.451-8.591,2.635c-0.18,0.433-0.364,0.874-0.607,1.272c-0.706,1.154-2.191,1.527-3.384,0.892
		C8.886,3.816,8.234,2.793,7.782,1.744c0.671-0.725,0.964-1.738,1.042-2.841L-3.02,4.318c-0.697,0.317-1.355,0.806-1.94,1.396
		l27.616,12.783C22.354,17.28,21.999,16.071,21.98,14.822z"/>
	<path fill="#1AC18E" d="M-7.375,15.814c1.021,0.656,2.037,1.4,2.415,2.097c0.204,0.376,0.211,0.826,0.231,1.254
		c0.054,1.188,0.108,2.376,0.164,3.562c0.02,0.436,0.036,0.895-0.039,1.323c-0.152,0.866-0.041,1.758,0.258,2.586l1.559,4.327
		c0.166,0.456,0.585,1.02,1.006,0.771c0.228-0.137,0.317-0.423,0.246-0.68l-1.25-4.521c-0.055-0.199-0.021-0.418,0.119-0.566
		c0.206-0.217,0.462-0.12,0.68-0.018c2.293,1.084,4.178,3.005,5.217,5.316c0.285,0.635,0.518,1.312,0.965,1.841
		c0.512,0.606,1.541,0.813,2.243,0.444c1.64-0.863,3.562-0.759,5.252,0.04c0.707,0.336,1.313,0.856,2.012,1.209
		c1.565,0.798,3.675,0.838,4.616,2.32c0.164,0.257,0.282,0.566,0.217,0.867c-0.089,0.418-0.492,0.682-0.853,0.917
		c-1.346,0.87-2.597,1.982-3.267,3.436c-0.67,1.457-0.655,3.303,0.348,4.551c1.704,2.123,5.648,2.086,6.401,4.701
		c0.153,0.534,0.135,1.11,0.324,1.633c0.188,0.525,0.573,0.954,0.803,1.46c0.32,0.709,0.322,1.537,0.243,2.399
		c0.181,0.036,0.364,0.069,0.552,0.097V36.355c-0.697-0.11-1.372-0.297-2.01-0.616c-0.663-0.331-1.255-0.791-1.934-1.091
		c-1.056-0.461-2.374-0.57-3.059-1.501c-0.725-0.985,1.497-3.399,0.046-3.52c-1.336,1.1-2.972,2.272-4.64,1.814
		c-1.053-0.29-1.834-1.184-2.368-2.139c-0.934-1.671-1.022-4.24,0.705-5.07c3.933-1.89,5.755-2.095,9.93-0.327
		c1.024,0.332,1.94-0.376,2.531-1.362L-6.998,8.993c-0.24,0.702-0.376,1.415-0.376,2.1V15.814z"/>
	<path fill="#FFFFFF" d="M60.756,6.809c-0.083-0.242-0.18-0.482-0.287-0.72c-0.029-0.061-0.051-0.122-0.079-0.18
		c-0.355-0.739-0.827-1.439-1.371-2.048c-0.099-0.109-0.197-0.217-0.3-0.32c-0.583-0.589-1.24-1.075-1.936-1.393L46.575-2.52
		l-10.811-4.94l-6.411-2.933c-0.903-0.414-2.021-0.668-3.196-0.771c-0.383-0.032-0.769-0.049-1.157-0.049
		c-0.388,0-0.774,0.017-1.158,0.049c-1.172,0.103-2.291,0.357-3.196,0.771l-0.349,0.161l-11.814,5.4L-6.782,2.147
		c-0.567,0.26-1.11,0.633-1.61,1.08C-8.611,3.423-8.819,3.636-9.02,3.86c-0.04,0.045-0.082,0.091-0.121,0.138
		c-0.535,0.626-0.987,1.34-1.326,2.089c-0.115,0.251-0.217,0.506-0.304,0.765c-0.232,0.691-0.364,1.395-0.364,2.072V41.08
		c0,0.927,0.246,1.907,0.668,2.835c0.364,0.805,0.86,1.569,1.447,2.227c0.655,0.734,1.42,1.339,2.236,1.714l27.431,12.537
		c0.706,0.322,1.546,0.547,2.439,0.681c0.248,0.034,0.5,0.067,0.757,0.09c0.381,0.035,0.77,0.05,1.156,0.05
		c0.387,0,0.775-0.017,1.159-0.05c0.255-0.022,0.507-0.053,0.756-0.09c0.894-0.134,1.733-0.359,2.438-0.681l20.668-9.446
		l6.764-3.091c0.815-0.375,1.58-0.979,2.235-1.714c0.587-0.661,1.084-1.426,1.45-2.229c0.419-0.928,0.666-1.905,0.666-2.832v-0.447
		V9.668V8.924C61.136,8.233,60.998,7.515,60.756,6.809z M57.374,11.093v0.795v27.018c0,0.521-0.079,1.055-0.217,1.589
		c-0.573,2.168-2.213,4.307-4.133,5.185l-10.23,4.675L29.354,56.5c-0.705,0.32-1.546,0.548-2.438,0.68V36.544V22.976L56.88,8.664
		C57.194,9.467,57.374,10.3,57.374,11.093z M22.535,57.084c-0.685-0.136-1.328-0.33-1.886-0.584l-23.67-10.818
		c-2.393-1.094-4.353-4.144-4.353-6.775V15.814v-4.721c0-0.685,0.137-1.401,0.376-2.1l29.289,13.556l0.798,0.37v13.44v20.821
		C22.899,57.153,22.716,57.12,22.535,57.084z M33.561-4.578l13.57,6.204l5.891,2.695c0.596,0.272,1.161,0.665,1.681,1.141
		l-1.105,0.528L25.068,19.618l-2.415-1.119L-4.961,5.716c0.585-0.59,1.243-1.078,1.94-1.396L8.821-1.095l11.828-5.406
		c0.972-0.446,2.197-0.706,3.467-0.789C24.41-7.31,24.706-7.322,25-7.322c1.579,0,3.155,0.273,4.351,0.821L33.561-4.578z"/>
	<g>
		<path fill="#4040A3" d="M19.758,23.91c-4.175-1.768-5.997-1.563-9.93,0.327c-1.728,0.831-1.639,3.399-0.705,5.07
			c0.533,0.954,1.315,1.849,2.368,2.139c1.668,0.457,3.304-0.715,4.64-1.813c1.451,0.12-0.771,2.534-0.046,3.519
			c0.686,0.932,2.003,1.037,3.059,1.502c0.679,0.3,1.271,0.758,1.934,1.091c0.639,0.319,1.313,0.506,2.01,0.616V22.921l-0.798-0.37
			C21.698,23.533,20.782,24.242,19.758,23.91z"/>
		<path fill="#4040A3" d="M52.573,5.709c-1.479-0.074-2.612,1.313-4.035,1.729c-1.165,0.341-2.512-0.047-3.313-0.955
			c-0.1-0.113-0.194-0.241-0.215-0.39c-0.054-0.408,0.429-0.644,0.805-0.816c0.7-0.32,1.357-1.019,1.194-1.773
			c-0.055-0.253-0.199-0.482-0.235-0.737c-0.058-0.405,0.153-0.772,0.357-1.143l-13.57-6.203c-0.129,0.642-0.239,1.303-0.529,1.834
			c-0.343,0.628-2.053,1.127-2.769,1.174c-0.68,0.046-1.37-1.245-1.617-1.879c-0.251-0.634-0.086-1.257-0.594-1.714
			c-0.827-0.747-2.218-0.439-3.119-1.097c-0.357-0.264-0.592-0.644-0.818-1.031c-1.271,0.083-2.496,0.344-3.468,0.788L8.82-1.097
			C8.742,0.006,8.45,1.019,7.778,1.744c0.454,1.049,1.104,2.072,2.116,2.612c1.193,0.636,2.678,0.263,3.383-0.892
			c0.245-0.398,0.428-0.842,0.608-1.272c1.293-3.086,7.178-2.961,8.591-2.635c1.414,0.326,2.647,1.159,3.952,1.798
			c1.897,0.93,3.985,1.46,6.096,1.545c0.795,1.101-0.132,2.717-1.36,3.294c-1.229,0.575-2.651,0.525-3.968,0.862
			c-1.511,0.386-3.084,1.673-2.45,3.337c0.106,0.277,0.171,0.572,0.16,0.869c-0.045,1.438-1.515,1.127-2.305,1.763
			c-0.51,0.412-0.632,1.139-0.625,1.795c0.017,1.25,0.374,2.46,0.673,3.677l2.415,1.119l28.53-13.63
			C53.271,5.836,52.936,5.73,52.573,5.709z"/>
		<path fill="#4040A3" d="M21.489,53.225c-0.189-0.522-0.171-1.097-0.324-1.633c-0.755-2.615-4.698-2.578-6.401-4.701
			c-1.003-1.248-1.019-3.094-0.348-4.551c0.669-1.453,1.92-2.565,3.267-3.436c0.361-0.235,0.764-0.499,0.853-0.917
			c0.064-0.301-0.053-0.608-0.217-0.867c-0.941-1.482-3.051-1.522-4.616-2.32c-0.698-0.353-1.305-0.873-2.012-1.209
			c-1.69-0.801-3.612-0.903-5.252-0.04c-0.702,0.371-1.729,0.164-2.243-0.444c-0.449-0.527-0.68-1.206-0.965-1.841
			c-1.041-2.312-2.924-4.234-5.217-5.316c-0.217-0.103-0.474-0.199-0.68,0.018c-0.14,0.148-0.175,0.369-0.119,0.566l1.25,4.521
			c0.071,0.257-0.018,0.543-0.246,0.68c-0.422,0.249-0.842-0.314-1.006-0.771l-1.559-4.327c-0.298-0.828-0.41-1.72-0.259-2.586
			c0.074-0.428,0.06-0.886,0.039-1.323c-0.056-1.187-0.109-2.375-0.164-3.562c-0.02-0.427-0.027-0.877-0.23-1.254
			c-0.378-0.697-1.393-1.441-2.415-2.097v23.092c0,2.632,1.959,5.678,4.353,6.775L20.647,56.5c0.559,0.254,1.201,0.448,1.887,0.584
			c0.079-0.862,0.079-1.69-0.243-2.399C22.063,54.179,21.68,53.749,21.489,53.225z"/>
		<path fill="#4040A3" d="M26.915,22.976v13.568c1.451,0.022,2.884,0.116,4.179,0.722c2.515,1.171,5.062,5.559,7.347,3.985
			c1.592-1.093,3.994-0.767,5.235,0.714c0.878,1.051,1.151,2.516,0.972,3.875c-0.176,1.361-0.761,2.633-1.434,3.827
			c-0.132,0.231-0.271,0.464-0.418,0.692l10.229-4.676c1.923-0.879,3.563-3.018,4.133-5.186c-0.658-0.93-1.107-1.995-1.275-3.107
			c-0.16-1.062-0.084-2.172-0.484-3.172c-0.104-0.259-0.239-0.51-0.28-0.781c-0.06-0.367,0.056-0.736,0.142-1.096
			c0.28-1.158-0.108-2.541-1.163-3.16c-0.844,0.142-1.7,0.221-2.558,0.232c-1.271,0.013-2.857-0.374-3.095-1.57
			c-0.089-0.443,0.035-0.939-0.207-1.325c-0.17-0.269-0.484-0.425-0.681-0.675c-0.75-0.945,0.57-2.245,0.397-3.422
			c-0.091-0.629-0.608-1.147-0.686-1.779c-0.117-0.923,0.717-1.704,0.921-2.615c0.262-1.187-0.516-2.634,0.341-3.529
			c0.271-0.285,0.661-0.438,1.042-0.563c1.586-0.52,3.855-3.167,7.807-2.044v-0.795c0-0.792-0.182-1.626-0.498-2.429L26.915,22.976z
			"/>
	</g>
</g>
</svg>
