<svg version="1.1" id="Capa_1" xmlns="http://www.w3.org/2000/svg" xmlns:xlink="http://www.w3.org/1999/xlink" x="0px" y="0px"
	 width="45px" height="45px" viewBox="17.5 17.5 45 45" enable-background="new 17.5 17.5 45 45" xml:space="preserve">
<g>
	<path fill="#1AC18E" d="M53.483,33.926c-0.208,0.068-0.422,0.152-0.571,0.309c-0.469,0.492-0.041,1.286-0.187,1.937
		c-0.111,0.5-0.569,0.928-0.506,1.436c0.043,0.346,0.326,0.63,0.378,0.976c0.094,0.646-0.63,1.359-0.22,1.878
		c0.109,0.139,0.282,0.224,0.373,0.371c0.134,0.213,0.065,0.484,0.114,0.727c0.132,0.657,1,0.868,1.7,0.862
		c0.469-0.007,0.939-0.05,1.402-0.127c0.579,0.34,0.791,1.1,0.64,1.734c-0.048,0.198-0.112,0.4-0.08,0.602
		c0.022,0.148,0.098,0.286,0.153,0.428c0.22,0.55,0.18,1.159,0.268,1.741c0.093,0.61,0.339,1.196,0.701,1.706
		c0.075-0.294,0.118-0.587,0.118-0.872V32.803C55.6,32.187,54.355,33.64,53.483,33.926z"/>
	<path fill="#1AC18E" d="M51.95,27.797c0.02,0.14,0.1,0.266,0.129,0.405c0.09,0.414-0.271,0.797-0.655,0.973
		c-0.207,0.094-0.471,0.224-0.442,0.448c0.012,0.082,0.063,0.152,0.119,0.214c0.439,0.5,1.179,0.713,1.817,0.524
		c0.781-0.229,1.402-0.991,2.215-0.949c0.198,0.011,0.383,0.07,0.561,0.153l0.607-0.29c-0.285-0.261-0.597-0.477-0.922-0.625
		l-3.234-1.479C52.035,27.374,51.919,27.575,51.95,27.797z"/>
	<path fill="#1AC18E" d="M39.964,22.844c0.494,0.361,1.256,0.192,1.712,0.602c0.277,0.251,0.188,0.592,0.324,0.941
		c0.138,0.348,0.516,1.056,0.889,1.031c0.392-0.026,1.331-0.301,1.521-0.645c0.159-0.292,0.219-0.655,0.289-1.007l-2.31-1.056
		c-0.657-0.301-1.523-0.451-2.39-0.451c-0.163,0-0.325,0.006-0.486,0.018C39.639,22.49,39.768,22.699,39.964,22.844z"/>
	<path fill="#1AC18E" d="M50.783,51.438c0.098-0.746-0.053-1.551-0.536-2.127c-0.68-0.813-1.998-0.992-2.871-0.393
		c-1.255,0.864-2.651-1.544-4.034-2.187c-0.709-0.332-1.495-0.384-2.292-0.397v11.327c0.49-0.073,0.95-0.197,1.337-0.373
		l7.377-3.371c0.081-0.126,0.158-0.253,0.23-0.38C50.366,52.883,50.687,52.185,50.783,51.438z"/>
	<path fill="#1AC18E" d="M38.342,34.414c-0.004-0.36,0.062-0.759,0.343-0.985c0.433-0.349,1.238-0.179,1.265-0.967
		c0.006-0.164-0.029-0.325-0.088-0.477c-0.348-0.913,0.516-1.619,1.344-1.832c0.723-0.185,1.503-0.157,2.178-0.474
		c0.675-0.316,1.183-1.202,0.747-1.808c-1.158-0.047-2.304-0.337-3.347-0.848c-0.714-0.351-1.391-0.808-2.168-0.987
		c-0.776-0.179-4.006-0.248-4.715,1.446c-0.099,0.238-0.2,0.48-0.333,0.698c-0.387,0.633-1.203,0.838-1.857,0.49
		c-0.555-0.298-0.913-0.859-1.161-1.435c0.368-0.398,0.529-0.954,0.572-1.56l-6.5,2.972c-0.382,0.174-0.744,0.442-1.065,0.766
		l15.157,7.016C38.548,35.763,38.353,35.099,38.342,34.414z"/>
	<path fill="#1AC18E" d="M22.23,34.958c0.561,0.36,1.118,0.768,1.326,1.151c0.112,0.207,0.116,0.453,0.127,0.688
		c0.03,0.652,0.059,1.304,0.09,1.955c0.011,0.239,0.02,0.491-0.021,0.726c-0.083,0.476-0.022,0.965,0.142,1.419l0.856,2.375
		c0.091,0.25,0.321,0.56,0.552,0.423c0.125-0.074,0.174-0.231,0.135-0.373l-0.686-2.48c-0.03-0.109-0.012-0.229,0.065-0.312
		c0.113-0.119,0.253-0.065,0.373-0.01c1.259,0.596,2.293,1.649,2.863,2.918c0.157,0.349,0.285,0.72,0.53,1.01
		c0.281,0.333,0.846,0.446,1.231,0.244c0.9-0.474,1.955-0.416,2.883,0.022c0.388,0.185,0.721,0.47,1.104,0.663
		c0.859,0.438,2.017,0.46,2.534,1.273c0.09,0.141,0.155,0.311,0.119,0.476c-0.049,0.229-0.27,0.375-0.468,0.504
		c-0.739,0.478-1.425,1.088-1.793,1.885c-0.368,0.8-0.359,1.814,0.191,2.499c0.935,1.165,3.1,1.145,3.513,2.579
		c0.084,0.294,0.074,0.61,0.178,0.897s0.314,0.523,0.441,0.801c0.175,0.389,0.177,0.844,0.133,1.316
		c0.099,0.021,0.2,0.039,0.303,0.054v-11.43c-0.382-0.061-0.753-0.163-1.103-0.339c-0.364-0.181-0.689-0.434-1.062-0.599
		c-0.58-0.253-1.303-0.313-1.679-0.823c-0.398-0.541,0.821-1.865,0.025-1.933c-0.733,0.604-1.631,1.247-2.546,0.996
		c-0.578-0.159-1.007-0.65-1.3-1.175c-0.513-0.916-0.561-2.327,0.387-2.782c2.159-1.038,3.158-1.149,5.45-0.18
		c0.562,0.183,1.065-0.206,1.389-0.747l-16.074-7.437c-0.131,0.385-0.206,0.776-0.206,1.152L22.23,34.958L22.23,34.958z"/>
	<path fill="#FFFFFF" d="M59.625,30.016c-0.046-0.133-0.099-0.265-0.158-0.396c-0.016-0.033-0.027-0.067-0.043-0.099
		c-0.194-0.406-0.454-0.79-0.752-1.124c-0.055-0.06-0.108-0.119-0.165-0.176c-0.319-0.323-0.681-0.59-1.063-0.765l-5.603-2.562
		l-5.935-2.711l-3.518-1.61c-0.496-0.228-1.109-0.367-1.755-0.423c-0.21-0.018-0.422-0.027-0.635-0.027
		c-0.213,0-0.425,0.009-0.636,0.027c-0.643,0.057-1.257,0.196-1.754,0.423l-0.192,0.088l-6.484,2.964l-8.378,3.83
		c-0.311,0.143-0.609,0.348-0.884,0.593c-0.12,0.108-0.234,0.225-0.345,0.348c-0.022,0.024-0.045,0.05-0.066,0.076
		c-0.293,0.344-0.542,0.735-0.728,1.146c-0.063,0.138-0.119,0.278-0.167,0.42c-0.127,0.379-0.2,0.766-0.2,1.137v17.649
		c0,0.509,0.135,1.047,0.367,1.556c0.2,0.443,0.472,0.862,0.794,1.224c0.36,0.401,0.779,0.734,1.228,0.939l15.056,6.882
		c0.387,0.177,0.848,0.3,1.338,0.374c0.136,0.018,0.274,0.036,0.416,0.049c0.209,0.02,0.423,0.027,0.635,0.027
		c0.212,0,0.425-0.009,0.636-0.027c0.14-0.012,0.278-0.028,0.415-0.049c0.49-0.074,0.95-0.197,1.338-0.374l11.344-5.185l3.712-1.697
		c0.448-0.205,0.867-0.537,1.228-0.939c0.321-0.363,0.595-0.784,0.795-1.225c0.23-0.509,0.366-1.045,0.366-1.555V48.58V31.584
		v-0.408C59.834,30.797,59.758,30.403,59.625,30.016z M57.769,32.367v0.437v14.83c0,0.285-0.043,0.578-0.119,0.871
		c-0.314,1.19-1.215,2.364-2.269,2.847l-5.614,2.565l-7.377,3.373c-0.388,0.176-0.849,0.3-1.338,0.373V46.335v-7.446l16.445-7.855
		C57.669,31.474,57.769,31.932,57.769,32.367z M38.647,57.609c-0.376-0.075-0.729-0.181-1.035-0.32l-12.991-5.938
		c-1.313-0.601-2.389-2.275-2.389-3.719V34.958v-2.591c0-0.376,0.075-0.769,0.206-1.152l16.076,7.44l0.438,0.203v7.377v11.428
		C38.847,57.647,38.746,57.629,38.647,57.609z M44.698,23.766l7.448,3.405l3.233,1.479c0.327,0.149,0.638,0.365,0.923,0.626
		l-0.606,0.29l-15.659,7.48l-1.326-0.614l-15.156-7.016c0.321-0.324,0.682-0.591,1.065-0.766l6.499-2.972l6.492-2.967
		c0.534-0.245,1.206-0.388,1.903-0.433c0.162-0.011,0.324-0.018,0.485-0.018c0.866,0,1.731,0.15,2.389,0.451L44.698,23.766z"/>
	<g>
		<path fill="#4040A3" d="M37.123,39.401c-2.291-0.97-3.291-0.857-5.45,0.18c-0.949,0.456-0.9,1.865-0.387,2.782
			c0.292,0.523,0.722,1.016,1.3,1.174c0.916,0.251,1.813-0.392,2.546-0.994c0.797,0.065-0.423,1.39-0.025,1.931
			c0.376,0.512,1.099,0.569,1.679,0.824c0.373,0.165,0.698,0.417,1.062,0.6c0.351,0.175,0.721,0.277,1.103,0.338v-7.377
			l-0.438-0.203C38.188,39.195,37.685,39.584,37.123,39.401z"/>
		<path fill="#4040A3" d="M55.133,29.412c-0.812-0.041-1.433,0.721-2.214,0.949c-0.64,0.187-1.379-0.026-1.818-0.524
			c-0.055-0.062-0.106-0.132-0.118-0.214c-0.029-0.224,0.235-0.354,0.441-0.448c0.385-0.176,0.745-0.56,0.655-0.973
			c-0.029-0.139-0.108-0.265-0.129-0.405c-0.031-0.222,0.085-0.423,0.196-0.627l-7.448-3.405c-0.07,0.353-0.131,0.715-0.29,1.006
			c-0.188,0.345-1.127,0.619-1.52,0.645c-0.373,0.025-0.752-0.683-0.888-1.031c-0.138-0.348-0.047-0.69-0.325-0.941
			c-0.455-0.41-1.218-0.241-1.712-0.602c-0.196-0.145-0.325-0.354-0.449-0.566c-0.697,0.046-1.37,0.189-1.903,0.433l-6.492,2.968
			c-0.042,0.605-0.203,1.162-0.572,1.56c0.25,0.576,0.606,1.137,1.162,1.433c0.655,0.35,1.47,0.145,1.856-0.489
			c0.135-0.219,0.235-0.462,0.334-0.698c0.71-1.694,3.939-1.625,4.715-1.446s1.453,0.636,2.168,0.987
			c1.042,0.511,2.188,0.801,3.346,0.848c0.437,0.604-0.071,1.491-0.746,1.808c-0.674,0.316-1.454,0.288-2.178,0.474
			c-0.829,0.211-1.693,0.918-1.345,1.831c0.058,0.152,0.094,0.314,0.088,0.477c-0.025,0.79-0.832,0.619-1.265,0.968
			c-0.28,0.226-0.347,0.625-0.343,0.985c0.009,0.686,0.205,1.351,0.369,2.019l1.326,0.614l15.658-7.481
			C55.517,29.481,55.332,29.423,55.133,29.412z"/>
		<path fill="#4040A3" d="M38.073,55.491c-0.104-0.286-0.094-0.603-0.178-0.896c-0.414-1.436-2.579-1.415-3.513-2.58
			c-0.55-0.685-0.559-1.698-0.191-2.498c0.367-0.797,1.054-1.407,1.793-1.886c0.198-0.129,0.419-0.273,0.468-0.503
			c0.035-0.165-0.029-0.334-0.119-0.477c-0.517-0.813-1.674-0.835-2.534-1.273c-0.383-0.193-0.716-0.479-1.104-0.663
			c-0.928-0.439-1.982-0.495-2.883-0.021c-0.385,0.203-0.949,0.09-1.231-0.244c-0.247-0.289-0.373-0.662-0.53-1.011
			c-0.571-1.269-1.604-2.323-2.863-2.918c-0.119-0.056-0.26-0.109-0.373,0.01c-0.077,0.082-0.096,0.203-0.065,0.312l0.686,2.481
			c0.039,0.141-0.01,0.298-0.135,0.373c-0.232,0.137-0.462-0.173-0.552-0.424l-0.856-2.374c-0.164-0.455-0.225-0.944-0.142-1.42
			c0.041-0.234,0.033-0.486,0.021-0.726c-0.031-0.652-0.06-1.304-0.09-1.955c-0.011-0.234-0.015-0.481-0.126-0.688
			c-0.208-0.382-0.765-0.791-1.326-1.151v12.674c0,1.444,1.076,3.116,2.39,3.719l12.991,5.938c0.307,0.14,0.659,0.245,1.036,0.32
			c0.043-0.473,0.043-0.927-0.133-1.316C38.388,56.016,38.178,55.778,38.073,55.491z"/>
		<path fill="#4040A3" d="M41.051,38.889v7.446c0.797,0.013,1.583,0.064,2.294,0.397c1.381,0.643,2.778,3.051,4.032,2.187
			c0.874-0.6,2.192-0.421,2.873,0.393c0.482,0.576,0.632,1.381,0.534,2.127c-0.097,0.747-0.418,1.444-0.787,2.1
			c-0.073,0.128-0.148,0.255-0.229,0.381l5.614-2.566c1.055-0.482,1.955-1.657,2.269-2.848c-0.361-0.51-0.608-1.095-0.7-1.705
			c-0.088-0.582-0.046-1.192-0.266-1.741c-0.058-0.142-0.131-0.279-0.153-0.428c-0.033-0.202,0.03-0.404,0.078-0.603
			c0.153-0.635-0.061-1.395-0.639-1.733c-0.464,0.077-0.933,0.121-1.404,0.127c-0.697,0.007-1.567-0.205-1.698-0.862
			c-0.05-0.242,0.02-0.515-0.114-0.727c-0.093-0.148-0.266-0.233-0.374-0.371c-0.411-0.518,0.313-1.231,0.219-1.878
			c-0.05-0.345-0.334-0.629-0.377-0.976c-0.064-0.507,0.394-0.936,0.506-1.436c0.144-0.651-0.283-1.445,0.187-1.937
			c0.149-0.157,0.363-0.241,0.572-0.309c0.871-0.286,2.116-1.738,4.285-1.122v-0.436c0-0.435-0.1-0.893-0.273-1.333L41.051,38.889z"
			/>
	</g>
</g>
</svg>
