<?xml version="1.0" encoding="utf-8"?>
<!-- Generator: Adobe Illustrator 22.1.0, SVG Export Plug-In . SVG Version: 6.00 Build 0)  -->
<svg version="1.1" id="Capa_1" xmlns="http://www.w3.org/2000/svg" xmlns:xlink="http://www.w3.org/1999/xlink" x="0px" y="0px"
	 viewBox="0 0 360 151" style="enable-background:new 0 0 360 151;" xml:space="preserve">
<style type="text/css">
	.st0{fill:#FFFFFF;}
</style>
<title>logo</title>
<g>
	<path class="st0" d="M113,111.2c0.7,0.3,1.8,0.5,3,0.5c1.2,0,1.9-0.4,1.9-1c0-0.5-0.6-0.9-2-1.2c-2-0.5-3.3-1.3-3.3-2.6
		c0-1.5,1.7-2.6,4.5-2.6c1.4,0,2.3,0.2,3,0.4l-0.6,1.6c-0.5-0.2-1.3-0.4-2.5-0.4c-1.2,0-1.7,0.4-1.7,0.8c0,0.6,0.6,0.8,2.2,1.2
		c2.1,0.6,3,1.4,3,2.6c0,1.5-1.5,2.7-4.7,2.7c-1.4,0-2.7-0.3-3.4-0.5L113,111.2z"/>
	<path class="st0" d="M143.2,113.3c-3.5,0-5.6-2-5.6-4.5c0-2.6,2.3-4.6,5.8-4.6c3.6,0,5.6,2,5.6,4.4
		C149,111.6,146.7,113.3,143.2,113.3L143.2,113.3z M143.3,111.8c1.8,0,2.8-1.3,2.8-3c0-1.6-1-2.9-2.8-2.9c-1.8,0-2.9,1.3-2.9,3
		C140.4,110.5,141.5,111.8,143.3,111.8L143.3,111.8z"/>
	<polygon class="st0" points="166.5,104.4 169.2,104.4 169.2,111.5 173.9,111.5 173.9,113.2 166.5,113.2 	"/>
	<path class="st0" d="M193.9,104.4v5c0,1.5,0.8,2.3,2.1,2.3c1.4,0,2.2-0.7,2.2-2.3v-5h2.7v4.9c0,2.7-1.8,4-4.9,4c-3,0-4.7-1.2-4.7-4
		v-4.9H193.9z"/>
	<polygon class="st0" points="221.3,106.1 218.1,106.1 218.1,104.4 227.2,104.4 227.2,106.1 224,106.1 224,113.2 221.3,113.2 	"/>
	<rect x="244.4" y="104.4" class="st0" width="2.7" height="8.8"/>
	<path class="st0" d="M270.2,113.3c-3.5,0-5.6-2-5.6-4.5c0-2.6,2.3-4.6,5.8-4.6c3.6,0,5.6,2,5.6,4.4
		C276,111.6,273.6,113.3,270.2,113.3L270.2,113.3z M270.3,111.8c1.8,0,2.8-1.3,2.8-3c0-1.6-1-2.9-2.8-2.9c-1.8,0-2.9,1.3-2.9,3
		C267.4,110.5,268.5,111.8,270.3,111.8L270.3,111.8z"/>
	<path class="st0" d="M293.5,113.2v-8.8h3.1l2.5,3.2c0.7,0.9,1.4,2,1.9,3h0c-0.2-1.2-0.2-2.3-0.2-3.7v-2.5h2.5v8.8h-2.8l-2.5-3.4
		c-0.7-1-1.5-2.1-2.1-3.1h-0.1c0.1,1.2,0.1,2.4,0.1,3.8v2.6H293.5z"/>
	<path class="st0" d="M321.4,111.2c0.7,0.3,1.8,0.5,3,0.5c1.2,0,1.9-0.4,1.9-1c0-0.5-0.6-0.9-2-1.2c-2-0.5-3.3-1.3-3.3-2.6
		c0-1.5,1.7-2.6,4.5-2.6c1.4,0,2.3,0.2,3,0.4l-0.6,1.6c-0.5-0.2-1.3-0.4-2.5-0.4c-1.2,0-1.7,0.4-1.7,0.8c0,0.6,0.6,0.8,2.2,1.2
		c2.1,0.6,3.1,1.4,3.1,2.6c0,1.5-1.5,2.7-4.8,2.7c-1.3,0-2.7-0.3-3.3-0.5L321.4,111.2z"/>
	<path class="st0" d="M114.2,77.9c3.5,1.7,8.6,2.9,14,2.9c8,0,12.7-3.1,12.7-7.7c0-4.1-3.2-6.6-11.5-8.9
		c-9.9-2.7-16.1-6.5-16.1-12.8c0-7,7.8-12.2,19.7-12.2c6.1,0,10.7,1.1,13.4,2.2l-2.2,4.7c-1.9-0.9-6-2.1-11.5-2.1
		c-8.3,0-11.5,3.7-11.5,6.8c0,4.2,3.7,6.3,12.1,8.7c10.3,3,15.4,6.6,15.4,13.2c0,7-6.9,13-21.2,13c-5.9,0-12.3-1.3-15.5-2.9
		L114.2,77.9z"/>
	<path class="st0" d="M185.2,85.8c-16.1,0-27.3-9.2-27.3-22.9c0-14.3,11.9-23.7,28.1-23.7c16.7,0,27.4,9.4,27.4,22.8
		C213.5,77.5,200.8,85.8,185.2,85.8L185.2,85.8z M185.6,81c12.4,0,19.5-8.5,19.5-18.7c0-9-6.3-18.3-19.4-18.3
		c-13.1,0-19.6,9-19.6,18.8C166.1,72.3,173.1,81,185.6,81L185.6,81z"/>
	<polygon class="st0" points="225.5,40 258.2,40 258.2,44.9 233.4,44.9 233.4,59.8 256.3,59.8 256.3,64.6 233.4,64.6 233.4,85 
		225.5,85 	"/>
	<rect x="271.3" y="40" class="st0" width="7.9" height="45"/>
	<path class="st0" d="M293.9,77.9c3.5,1.7,8.6,2.9,14,2.9c8,0,12.7-3.1,12.7-7.7c0-4.1-3.2-6.6-11.5-8.9
		c-9.9-2.7-16.1-6.5-16.1-12.8c0-7,7.8-12.2,19.7-12.2c6.1,0,10.7,1.1,13.4,2.2l-2.2,4.7c-1.9-0.9-6-2.1-11.5-2.1
		c-8.3,0-11.5,3.7-11.5,6.8c0,4.2,3.7,6.3,12.1,8.7c10.3,3,15.4,6.6,15.4,13.2c0,7-6.9,13-21.2,13c-5.9,0-12.3-1.3-15.5-2.9
		L293.9,77.9z"/>
	<path class="st0" d="M97.1,60.1c-1.5-2-3.7-3-6-3c-1.6,0-3.2,0.5-4.6,1.5c-3.3,2.5-4,7.2-1.5,10.6c1.5,2,3.7,3,6,3
		c1.6,0,3.2-0.5,4.6-1.5C98.9,68.2,99.6,63.4,97.1,60.1"/>
	<path class="st0" d="M42.5,83.8c-1.1-1.5-2.8-2.3-4.6-2.3c-1.2,0-2.4,0.4-3.5,1.2c-2.5,1.9-3,5.5-1.1,8c1.1,1.5,2.8,2.3,4.6,2.3
		c1.2,0,2.4-0.4,3.5-1.2C43.9,89.9,44.4,86.3,42.5,83.8"/>
	<path class="st0" d="M55.8,43.9c0,0.3,0,0.6-0.1,1c-0.1,1.1-0.5,2.1-1.1,3c13.5,4.2,23.7,11.4,27.2,14c0.4-1.4,1.2-2.7,2.1-3.7
		C77,52.6,63.3,45.8,55.8,43.9"/>
	<path class="st0" d="M52.5,40.5c-1.1-1.4-2.7-2.2-4.4-2.2c-1.2,0-2.3,0.4-3.3,1.1c-2.4,1.8-2.9,5.3-1.1,7.7
		c1.1,1.4,2.7,2.2,4.4,2.2c1.2,0,2.3-0.4,3.3-1.1C53.9,46.4,54.4,42.9,52.5,40.5"/>
	<path class="st0" d="M61.2,100.9c-6-2.6-13.3-7.8-16.4-10c-0.5,1-1.3,1.9-2.2,2.6c-0.2,0.2-0.5,0.3-0.8,0.5c7,5.5,15,9.4,18.4,10.9
		C60.3,103.5,60.6,102.1,61.2,100.9"/>
	<path class="st0" d="M77.3,97.7c5.3-7.7,9.8-19.3,11.1-23.8c-0.5-0.1-1-0.3-1.4-0.5c-2.5,10.6-7.6,20.1-10,24
		C77,97.5,77.1,97.6,77.3,97.7"/>
	<path class="st0" d="M76.8,100.3c-1.6-2.1-4-3.2-6.4-3.2c-1.7,0-3.4,0.5-4.9,1.6c-3.5,2.7-4.2,7.7-1.5,11.3c1.6,2.1,4,3.2,6.4,3.2
		c1.7,0,3.4-0.5,4.9-1.6C78.8,108.9,79.5,103.9,76.8,100.3"/>
	<path class="st0" d="M37.9,79.4c0.1,0,0.2,0,0.4,0c1.1-15.6,4.5-25.6,5.9-29.1c-0.2-0.2-0.5-0.3-0.7-0.5
		c-5.7,13.3-7.2,25.5-7.6,29.9C36.5,79.5,37.2,79.4,37.9,79.4"/>
</g>
</svg>
