<svg id="Capa_1" data-name="Capa 1" xmlns="http://www.w3.org/2000/svg" viewBox="0 0 229 75"><defs><style>.cls-1{fill:#003154;}.cls-2{fill:#fff;}.cls-3{fill:#4040a3;}.cls-4{opacity:0.03;}</style></defs><title>logoNav</title><path class="cls-1" d="M64.35,65.34a1.21,1.21,0,0,1-.94-.33,1.31,1.31,0,0,1-.35-.8L59.91,38.14a1,1,0,0,1,.23-.79.94.94,0,0,1,.7-.26h3.43a1,1,0,0,1,.81.28,1.1,1.1,0,0,1,.28.6l2.38,20.79L79,38a1.88,1.88,0,0,1,.46-.58,1.38,1.38,0,0,1,.92-.3h3.91a.58.58,0,0,1,.62.4,1.06,1.06,0,0,1-.06.85L70.69,64.21A2.61,2.61,0,0,1,70,65a1.69,1.69,0,0,1-1.07.33Z"/><path class="cls-1" d="M88.81,65.74A8.08,8.08,0,0,1,85.26,65,5.46,5.46,0,0,1,83,63a7.48,7.48,0,0,1-1.07-3A13.21,13.21,0,0,1,82,56.14c.1-.49.2-.92.28-1.31s.18-.83.28-1.32a19.88,19.88,0,0,1,1.39-3.75,12.22,12.22,0,0,1,2.15-3,9.09,9.09,0,0,1,3-2A10.11,10.11,0,0,1,93,44a7.44,7.44,0,0,1,3.81.79,6.16,6.16,0,0,1,2,1.91l.28-1.33a1.24,1.24,0,0,1,.41-.69,1.09,1.09,0,0,1,.72-.28h3.19a.8.8,0,0,1,.64.28.76.76,0,0,1,.16.69l-4.07,19.05a1.13,1.13,0,0,1-.41.68,1,1,0,0,1-.72.29H95.87a.81.81,0,0,1-.67-.29.76.76,0,0,1-.13-.68l.32-1.5a11.11,11.11,0,0,1-2.67,2.06A8,8,0,0,1,88.81,65.74Zm1.81-4.32a5.27,5.27,0,0,0,2.91-.77,6.19,6.19,0,0,0,2-1.95,9,9,0,0,0,1.07-2.44q.19-.73.36-1.56c.11-.55.2-1.07.28-1.55a6.06,6.06,0,0,0,0-2.32,3.16,3.16,0,0,0-1-1.84,3.72,3.72,0,0,0-2.49-.72,4.66,4.66,0,0,0-2.68.74,6.18,6.18,0,0,0-1.84,2A12.05,12.05,0,0,0,88,53.63c-.11.41-.2.81-.28,1.21s-.15.81-.2,1.21a11.7,11.7,0,0,0-.1,2.67,3.07,3.07,0,0,0,.84,2A3.2,3.2,0,0,0,90.62,61.42Z"/><path class="cls-1" d="M106.85,65.34a.8.8,0,0,1-.67-.29.79.79,0,0,1-.14-.68l5.61-26.27a1.23,1.23,0,0,1,.4-.73,1.13,1.13,0,0,1,.77-.28h17.51a.73.73,0,0,1,.65.28.92.92,0,0,1,.12.73l-.6,2.82a1.21,1.21,0,0,1-.41.71,1.19,1.19,0,0,1-.77.26H116.37l-1.65,7.67h12.14a.74.74,0,0,1,.65.28.92.92,0,0,1,.12.73l-.57,2.82a1.15,1.15,0,0,1-.42.69,1.19,1.19,0,0,1-.79.28H113.71l-2.14,10a1.16,1.16,0,0,1-.4.68,1.15,1.15,0,0,1-.77.29Z"/><path class="cls-1" d="M130.58,65.34a.75.75,0,0,1-.63-.29.76.76,0,0,1-.14-.68l4-19.05a1.15,1.15,0,0,1,.42-.69,1.2,1.2,0,0,1,.75-.28h3.35a.75.75,0,0,1,.64.28.85.85,0,0,1,.12.69l-4,19.05a1.22,1.22,0,0,1-.4.68,1.15,1.15,0,0,1-.77.29Zm5-24.46a.73.73,0,0,1-.62-.28.79.79,0,0,1-.14-.69l.64-2.9a1.22,1.22,0,0,1,.4-.69,1.13,1.13,0,0,1,.77-.28h3.67a.81.81,0,0,1,.65.28.76.76,0,0,1,.16.69l-.65,2.9a1.23,1.23,0,0,1-1.17,1Z"/><path class="cls-1" d="M141.23,65.34a.73.73,0,0,1-.62-.29.79.79,0,0,1-.15-.68l4-19a1.17,1.17,0,0,1,.43-.73,1.16,1.16,0,0,1,.74-.28h3.27a.76.76,0,0,1,.62.28.89.89,0,0,1,.15.73L149.34,47a6.41,6.41,0,0,1,2.46-2,8.64,8.64,0,0,1,3.63-.69h2a.75.75,0,0,1,.64.28.89.89,0,0,1,.12.69l-.6,2.91a1.16,1.16,0,0,1-.43.68,1.14,1.14,0,0,1-.75.29h-3.14A5,5,0,0,0,150,50.26a5.08,5.08,0,0,0-1.72,3l-2.38,11.1a1.12,1.12,0,0,1-.4.68,1.13,1.13,0,0,1-.77.29Z"/><path class="cls-1" d="M158.14,65.34a.76.76,0,0,1-.63-.29.79.79,0,0,1-.14-.68l4-19.05a1.23,1.23,0,0,1,1.17-1h3.15a.7.7,0,0,1,.6.28.85.85,0,0,1,.12.69l-.28,1.37a15.82,15.82,0,0,1,1.59-1.39,6.71,6.71,0,0,1,1.92-1,8.15,8.15,0,0,1,2.54-.36,7.1,7.1,0,0,1,3.86.95,4.64,4.64,0,0,1,2,2.64,10.64,10.64,0,0,1,3-2.6,7.71,7.71,0,0,1,4-1,7.08,7.08,0,0,1,3.77,1,5.17,5.17,0,0,1,2.24,2.92,9.83,9.83,0,0,1,0,4.95l-2.5,11.58a1.18,1.18,0,0,1-.41.68,1,1,0,0,1-.72.29h-3.31a.76.76,0,0,1-.63-.29.79.79,0,0,1-.14-.68l2.38-11.26a6.9,6.9,0,0,0,.16-2.89,2.22,2.22,0,0,0-1-1.51,3.37,3.37,0,0,0-1.79-.44,4.89,4.89,0,0,0-2,.44,5.18,5.18,0,0,0-1.9,1.51,6.57,6.57,0,0,0-1.22,2.89l-2.43,11.26a1.12,1.12,0,0,1-.4.68,1.07,1.07,0,0,1-.73.29h-3.3a.8.8,0,0,1-.65-.29.74.74,0,0,1-.16-.68l2.42-11.26a6.88,6.88,0,0,0,.1-2.89,2.35,2.35,0,0,0-1-1.51,3.34,3.34,0,0,0-1.78-.44,4.79,4.79,0,0,0-1.94.46,5.39,5.39,0,0,0-1.92,1.51,6.5,6.5,0,0,0-1.23,2.87l-2.42,11.26a1.13,1.13,0,0,1-.41.68,1,1,0,0,1-.72.29Z"/><path class="cls-1" d="M201.48,65.74a8.08,8.08,0,0,1-3.55-.71,5.46,5.46,0,0,1-2.28-2,7.63,7.63,0,0,1-1.07-3,13.57,13.57,0,0,1,.08-3.85c.11-.49.2-.92.29-1.31s.17-.83.28-1.32a19.21,19.21,0,0,1,1.39-3.75,12.19,12.19,0,0,1,2.14-3,9.13,9.13,0,0,1,3-2,10.05,10.05,0,0,1,3.93-.72,7.41,7.41,0,0,1,3.81.79,6,6,0,0,1,2,1.91l.28-1.33a1.24,1.24,0,0,1,.41-.69,1.09,1.09,0,0,1,.72-.28h3.19a.85.85,0,0,1,.65.28.79.79,0,0,1,.16.69l-4.08,19.05a1.16,1.16,0,0,1-.4.68,1.09,1.09,0,0,1-.73.29h-3.19a.77.77,0,0,1-.8-1l.32-1.5a11.06,11.06,0,0,1-2.66,2.06A8.08,8.08,0,0,1,201.48,65.74Zm1.82-4.32a5.21,5.21,0,0,0,2.9-.77,6.09,6.09,0,0,0,2-1.95,8.45,8.45,0,0,0,1.07-2.44c.14-.49.26-1,.37-1.56s.2-1.07.28-1.55a6.27,6.27,0,0,0,0-2.32,3.18,3.18,0,0,0-1-1.84,3.69,3.69,0,0,0-2.48-.72,4.69,4.69,0,0,0-2.69.74,6,6,0,0,0-1.83,2,11.6,11.6,0,0,0-1.17,2.66c-.11.41-.2.81-.29,1.21s-.15.81-.2,1.21a12.3,12.3,0,0,0-.1,2.67,3,3,0,0,0,.85,2A3.2,3.2,0,0,0,203.3,61.42Z"/><path class="cls-2" d="M58.57,69a4.66,4.66,0,0,1-.39.49l.43-.12Z"/><path class="cls-1" d="M27.74,47.48,10.59,32.39l14-1.68L16.12,17.12l4.95-3.37L30,28l9.25-10.23L41.93,40l3.35-1.76-2.51-21a3.53,3.53,0,0,0-2.44-2.94,3.52,3.52,0,0,0-3.69,1l-6.12,6.78L24.06,11.87a3.54,3.54,0,0,0-2.26-1.58,4.62,4.62,0,0,0-.73-.07,3.53,3.53,0,0,0-2,.61l-5,3.37a3.54,3.54,0,0,0-1,4.79l5.55,8.87-8.5,1A3.53,3.53,0,0,0,8.26,35L24.4,49.24Z"/><path class="cls-3" d="M42.46,44.36,44,57.44,38.26,46.57h0l-1-1.8L36.35,43l-.58-1.1a4.41,4.41,0,0,0,.95-3.32,4.47,4.47,0,1,0-4.08,5l.58,1.1,1,1.8,1,1.8h0L40.87,59,31,50.37l-3.34,1.76L39.26,62.3H14.47a1.77,1.77,0,1,0,0,3.54H44.2a1,1,0,0,0,.17,0,1.84,1.84,0,0,0,.25,0,3.44,3.44,0,0,0,1.64-.41,3.53,3.53,0,0,0,1.86-3.55L45.81,42.6Z"/><g class="cls-4"><path class="cls-2" d="M-139.73,4.76A183.78,183.78,0,0,1-201.82,8.6a.69.69,0,0,1-.62-.76.7.7,0,0,1,.77-.61A182.61,182.61,0,0,0-140,3.42c98-23,159.11-121.5,136.1-219.56s-121.5-159.11-219.55-136.1a182.18,182.18,0,0,0-56.89,24,.7.7,0,0,1-1-.21.7.7,0,0,1,.21-1,184.11,184.11,0,0,1,57.32-24.18,183.17,183.17,0,0,1,73.08-2.3,183.22,183.22,0,0,1,66,25A183.46,183.46,0,0,1-33-282.93,183.1,183.1,0,0,1-2.59-216.45a183.17,183.17,0,0,1,2.3,73.08,183.25,183.25,0,0,1-25,66A183.19,183.19,0,0,1-73.25-25.68,183.1,183.1,0,0,1-139.73,4.76Z"/></g></svg>