<?xml version="1.0" encoding="utf-8"?>
<!-- Generator: Adobe Illustrator 16.0.3, SVG Export Plug-In . SVG Version: 6.00 Build 0)  -->
<!DOCTYPE svg PUBLIC "-//W3C//DTD SVG 1.1//EN" "http://www.w3.org/Graphics/SVG/1.1/DTD/svg11.dtd">
<svg version="1.1" id="Capa_1" xmlns="http://www.w3.org/2000/svg" xmlns:xlink="http://www.w3.org/1999/xlink" x="0px" y="0px"
	 width="150px" height="42.934px" viewBox="0 0 150 42.934" enable-background="new 0 0 150 42.934" xml:space="preserve">
<g>
	<path fill="#FFFFFF" d="M41.559,38.95c0.348,0.136,0.903,0.27,1.469,0.27c0.607,0,0.928-0.188,0.928-0.476
		c0-0.264-0.278-0.425-0.978-0.606c-0.973-0.256-1.618-0.655-1.618-1.294c0-0.738,0.843-1.298,2.214-1.298
		c0.671,0,1.146,0.097,1.495,0.218l-0.294,0.786c-0.226-0.085-0.654-0.204-1.217-0.204c-0.574,0-0.85,0.197-0.85,0.416
		c0,0.276,0.32,0.398,1.085,0.618c1.033,0.282,1.509,0.685,1.509,1.299c0,0.727-0.746,1.346-2.35,1.346
		c-0.669,0-1.33-0.137-1.659-0.271L41.559,38.95z"/>
	<path fill="#FFFFFF" d="M56.492,40.024c-1.725,0-2.752-0.972-2.752-2.207c0-1.301,1.131-2.271,2.849-2.271
		c1.797,0,2.779,0.997,2.779,2.194c0,1.429-1.154,2.284-2.866,2.284H56.492z M56.554,39.246c0.895,0,1.406-0.625,1.406-1.476
		c0-0.777-0.494-1.445-1.406-1.445s-1.425,0.654-1.425,1.467c0,0.815,0.53,1.454,1.417,1.454H56.554z"/>
	<polygon fill="#FFFFFF" points="68.048,35.617 69.368,35.617 69.368,39.129 71.696,39.129 71.696,39.954 68.048,39.954 	"/>
	<path fill="#FFFFFF" d="M81.599,35.617v2.489c0,0.754,0.392,1.133,1.061,1.133c0.697,0,1.075-0.36,1.075-1.133v-2.489h1.322v2.432
		c0,1.337-0.913,1.976-2.441,1.976c-1.478,0-2.339-0.613-2.339-1.989v-2.418H81.599z"/>
	<polygon fill="#FFFFFF" points="95.141,36.44 93.561,36.44 93.561,35.617 98.057,35.617 98.057,36.44 96.461,36.44 96.461,39.953 
		95.141,39.953 	"/>
	<rect x="106.576" y="35.615" fill="#FFFFFF" width="1.319" height="4.338"/>
	<path fill="#FFFFFF" d="M119.327,40.024c-1.727,0-2.752-0.972-2.752-2.207c0-1.301,1.128-2.271,2.848-2.271
		c1.797,0,2.779,0.997,2.779,2.194c0,1.429-1.152,2.284-2.866,2.284H119.327z M119.388,39.246c0.895,0,1.407-0.625,1.407-1.476
		c0-0.777-0.494-1.445-1.407-1.445c-0.912,0-1.425,0.654-1.425,1.467c0,0.815,0.53,1.454,1.418,1.454H119.388z"/>
	<path fill="#FFFFFF" d="M130.874,39.953v-4.338h1.546l1.215,1.591c0.346,0.456,0.686,0.996,0.954,1.485h0.02
		c-0.08-0.571-0.104-1.157-0.104-1.814v-1.262h1.214v4.338h-1.389l-1.248-1.673c-0.349-0.471-0.739-1.022-1.018-1.531h-0.037
		c0.045,0.579,0.062,1.19,0.062,1.897v1.307H130.874z"/>
	<path fill="#FFFFFF" d="M144.712,38.95c0.347,0.136,0.902,0.27,1.465,0.27c0.61,0,0.931-0.188,0.931-0.476
		c0-0.264-0.276-0.425-0.981-0.606c-0.972-0.256-1.615-0.655-1.615-1.294c0-0.738,0.843-1.298,2.213-1.298
		c0.669,0,1.146,0.097,1.495,0.218l-0.296,0.786c-0.225-0.085-0.651-0.204-1.216-0.204c-0.571,0-0.851,0.197-0.851,0.416
		c0,0.276,0.32,0.398,1.086,0.618c1.034,0.282,1.512,0.685,1.512,1.299c0,0.727-0.749,1.346-2.354,1.346
		c-0.667,0-1.33-0.137-1.656-0.271L144.712,38.95z"/>
	<path fill="#FFFFFF" d="M42.12,22.499c1.742,0.825,4.241,1.454,6.919,1.454c3.976,0,6.295-1.521,6.295-3.803
		c0-2.051-1.606-3.275-5.669-4.4c-4.911-1.32-7.948-3.241-7.948-6.35c0-3.475,3.885-6.052,9.731-6.052
		c3.039,0,5.313,0.529,6.61,1.09l-1.071,2.35c-0.94-0.432-2.947-1.058-5.671-1.058c-4.109,0-5.671,1.817-5.671,3.34
		c0,2.085,1.831,3.109,5.985,4.299c5.088,1.488,7.631,3.275,7.631,6.55c0,3.439-3.393,6.449-10.49,6.449
		c-2.903,0-6.073-0.662-7.68-1.455L42.12,22.499z"/>
	<path fill="#FFFFFF" d="M77.301,26.368c-7.992,0-13.526-4.564-13.526-11.311c0-7.079,5.892-11.708,13.927-11.708
		c8.26,0,13.571,4.662,13.571,11.277c0,7.641-6.294,11.741-13.929,11.741H77.301z M77.48,24.021c6.16,0,9.643-4.201,9.643-9.262
		c0-4.432-3.126-9.063-9.599-9.063c-6.475,0-9.687,4.465-9.687,9.293c0,4.698,3.481,9.031,9.598,9.031H77.48z"/>
	<polygon fill="#FFFFFF" points="97.214,3.711 113.419,3.711 113.419,6.125 101.142,6.125 101.142,13.536 112.481,13.536 
		112.481,15.915 101.142,15.915 101.142,26.006 97.214,26.006 	"/>
	<rect x="119.894" y="3.711" fill="#FFFFFF" width="3.93" height="22.295"/>
	<path fill="#FFFFFF" d="M131.058,22.499c1.74,0.825,4.24,1.454,6.917,1.454c3.975,0,6.296-1.521,6.296-3.803
		c0-2.051-1.608-3.275-5.668-4.4c-4.914-1.32-7.949-3.241-7.949-6.35c0-3.475,3.884-6.052,9.731-6.052
		c3.037,0,5.313,0.529,6.61,1.09l-1.071,2.35c-0.938-0.432-2.948-1.058-5.672-1.058c-4.106,0-5.668,1.817-5.668,3.34
		c0,2.085,1.828,3.109,5.982,4.299c5.089,1.488,7.634,3.275,7.634,6.55c0,3.439-3.395,6.449-10.492,6.449
		c-2.902,0-6.072-0.662-7.68-1.455L131.058,22.499z"/>
	<path fill="#FFFFFF" d="M33.671,13.673c-0.735-0.965-1.85-1.475-2.979-1.475c-0.79,0-1.579,0.246-2.256,0.761
		c-1.644,1.244-1.964,3.588-0.718,5.232c0.735,0.968,1.849,1.479,2.979,1.479c0.786,0,1.581-0.249,2.254-0.762
		C34.595,17.662,34.919,15.318,33.671,13.673"/>
	<path fill="#FFFFFF" d="M6.648,25.394c-0.561-0.736-1.405-1.123-2.263-1.123c-0.599,0-1.203,0.188-1.714,0.578
		c-1.252,0.946-1.496,2.73-0.545,3.978c0.557,0.736,1.405,1.123,2.261,1.123c0.599,0,1.203-0.19,1.716-0.579
		C7.351,28.424,7.597,26.642,6.648,25.394"/>
	<path fill="#FFFFFF" d="M13.214,5.663c-0.002,0.158-0.01,0.313-0.032,0.471c-0.072,0.537-0.26,1.037-0.538,1.482
		c6.662,2.104,11.727,5.634,13.485,6.93c0.212-0.692,0.57-1.322,1.063-1.853C23.731,9.951,16.951,6.568,13.214,5.663"/>
	<path fill="#FFFFFF" d="M11.624,3.984c-0.532-0.705-1.344-1.075-2.163-1.075c-0.572,0-1.145,0.182-1.638,0.554
		C6.63,4.369,6.393,6.074,7.302,7.266c0.534,0.705,1.344,1.075,2.163,1.075c0.572,0,1.149-0.18,1.64-0.555
		C12.299,6.881,12.532,5.179,11.624,3.984"/>
	<path fill="#FFFFFF" d="M15.923,33.846C12.966,32.575,9.327,30,7.819,28.908c-0.259,0.499-0.625,0.94-1.087,1.29
		c-0.12,0.093-0.254,0.169-0.381,0.245c3.464,2.708,7.438,4.657,9.094,5.388C15.468,35.147,15.63,34.473,15.923,33.846"/>
	<path fill="#FFFFFF" d="M23.859,32.303c2.642-3.786,4.865-9.557,5.476-11.797c-0.244-0.073-0.483-0.161-0.711-0.269
		c-1.214,5.247-3.771,9.949-4.941,11.898C23.745,32.188,23.801,32.247,23.859,32.303"/>
	<path fill="#FFFFFF" d="M23.628,33.577c-0.786-1.031-1.973-1.575-3.173-1.575c-0.839,0-1.686,0.265-2.403,0.81
		c-1.75,1.331-2.091,3.824-0.761,5.575c0.78,1.031,1.967,1.573,3.168,1.573c0.841,0,1.686-0.264,2.406-0.807
		C24.614,37.82,24.957,35.326,23.628,33.577"/>
	<path fill="#FFFFFF" d="M4.385,23.232c0.063,0,0.123,0.008,0.188,0.009C5.12,15.513,6.791,10.596,7.494,8.819
		C7.371,8.744,7.251,8.658,7.136,8.567C4.311,15.158,3.55,21.205,3.359,23.381C3.69,23.289,4.033,23.232,4.385,23.232"/>
</g>
</svg>
